HIERARCHY
ROOT Hips
{
  OFFSET -31.5692 30.0904 122.763
  CHANNELS 6 Xposition Yposition Zposition Zrotation Xrotation Yrotation
  JOINT LeftUpLeg
  {
    OFFSET 8.64259 1.95398 -2.38835
    CHANNELS 3 Zrotation Xrotation Yrotation
    JOINT LeftLeg
    {
      OFFSET 43.7702 0 0
      CHANNELS 3 Zrotation Xrotation Yrotation
      JOINT LeftFoot
      {
        OFFSET 40.6238 0 0
        CHANNELS 3 Zrotation Xrotation Yrotation
        JOINT LeftToeBase
        {
          OFFSET 12.7242 0 0
          CHANNELS 3 Zrotation Xrotation Yrotation
          End Site
          {
            OFFSET 0 0 0
          }
        }
      }
    }
  }
  JOINT RightUpLeg
  {
    OFFSET -8.2249 1.95398 -2.59336
    CHANNELS 3 Zrotation Xrotation Yrotation
    JOINT RightLeg
    {
      OFFSET 43.5653 0 0
      CHANNELS 3 Zrotation Xrotation Yrotation
      JOINT RightFoot
      {
        OFFSET 40.6238 0 0
        CHANNELS 3 Zrotation Xrotation Yrotation
        JOINT RightToeBase
        {
          OFFSET 12.7242 0 0
          CHANNELS 3 Zrotation Xrotation Yrotation
          End Site
          {
            OFFSET 0 0 0
          }
        }
      }
    }
  }
  JOINT Spine
  {
    OFFSET 0.165834 0.87714 6.61349
    CHANNELS 3 Zrotation Xrotation Yrotation
    JOINT Spine1
    {
      OFFSET 7.38963 1.71661e-005 0
      CHANNELS 3 Zrotation Xrotation Yrotation
      JOINT Spine2
      {
        OFFSET 11.9445 1.14441e-005 0
        CHANNELS 3 Zrotation Xrotation Yrotation
        JOINT Spine3
        {
          OFFSET 14.7254 4.19617e-005 0
          CHANNELS 3 Zrotation Xrotation Yrotation
          JOINT Spine4
          {
            OFFSET 10.9679 0 0
            CHANNELS 3 Zrotation Xrotation Yrotation
            JOINT RightShoulder
            {
              OFFSET 2.46616 -1.6653 3.69651
              CHANNELS 3 Zrotation Xrotation Yrotation
              JOINT RightArm
              {
                OFFSET 13.0012 0 0
                CHANNELS 3 Zrotation Xrotation Yrotation
                JOINT RightForeArm
                {
                  OFFSET 28.7848 1.62311e-005 0
                  CHANNELS 3 Zrotation Xrotation Yrotation
                  JOINT RightHand
                  {
                    OFFSET 26.5688 1.62095e-005 0
                    CHANNELS 3 Zrotation Xrotation Yrotation
                    End Site
                    {
                      OFFSET 0 0 0
                    }
                  }
                }
              }
            }
            JOINT LeftShoulder
            {
              OFFSET 2.38034 -1.29275 -3.7523
              CHANNELS 3 Zrotation Xrotation Yrotation
              JOINT LeftArm
              {
                OFFSET 16.3182 6.07031e-005 0
                CHANNELS 3 Zrotation Xrotation Yrotation
                JOINT LeftForeArm
                {
                  OFFSET 27.0901 0 0
                  CHANNELS 3 Zrotation Xrotation Yrotation
                  JOINT LeftHand
                  {
                    OFFSET 24.5451 1.51738e-005 0
                    CHANNELS 3 Zrotation Xrotation Yrotation
                    End Site
                    {
                      OFFSET 0 0 0
                    }
                  }
                }
              }
            }
            JOINT Neck
            {
              OFFSET 5.0226 -0.0266342 0
              CHANNELS 3 Zrotation Xrotation Yrotation
              JOINT Head
              {
                OFFSET 6.69364 2.86102e-005 0
                CHANNELS 3 Zrotation Xrotation Yrotation
                End Site
                {
                  OFFSET 0 0 0
                }
              }
            }
          }
        }
      }
    }
  }
}
MOTION
Frames:	9
Frame Time:	0.0416667
39.9037 101.686 27.8306 -173.412 -81.3049 -174.917 -173.36 -6.97264 89.1169 -10.911 7.75344 0.71295 70.2762 6.19005 -2.51741 16.2854 -9.4835 6.78205 169.843 -6.66263 85.8875 -11.1384 -4.80094 -0.374723 66.896 -4.25087 1.21011 26.7453 0.337344 2.76425 0.161541 8.03532 -89.9132 10.8031 0.361793 0.139091 -0.867819 0.367564 0.123027 -23.4032 0.303265 0.241388 -3.39057 0.303261 0.241383 88.0968 -30.7668 -110.179 37.4188 -8.59905 -7.06865 7.1934 -29.1776 -13.4033 -21.7168 -0.388302 -8.60878 -89.5933 -49.9631 79.3285 -23.627 14.3828 -16.0095 -5.38151 12.3958 -0.00966473 3.61678 -0.13988 -14.3427 5.52038 -1.76312 -3.26257 -3.76906 -1.12531 1.50029 
39.7326 101.718 27.7887 -174.681 -81.7597 -175.731 -172.893 -6.09126 89.8729 -11.563 8.44721 0.465507 70.459 6.18697 -2.66004 16.74 -9.59906 7.54881 170.535 -6.62314 86.7274 -10.5559 -4.6135 -0.499702 65.9799 -3.79377 0.739998 26.7457 0.197349 3.40206 0.145485 7.98123 -89.9589 10.9113 0.308735 0.0526023 -0.759573 0.310744 0.0389519 -23.295 0.278651 0.142949 -3.28232 0.278652 0.142955 88.159 -30.7848 -110.05 37.9687 -8.42154 -7.109 6.98016 -29.563 -13.3693 -22.7316 -0.477877 -8.03613 -89.633 -49.9911 79.2749 -22.8335 15.5577 -15.777 -6.27378 11.8204 -0.00964393 4.38236 -0.198632 -13.6766 4.83637 -1.83305 -3.82234 -2.51129 -1.08799 2.50273 
39.7543 101.707 27.7402 -174.813 -82.1164 -176.213 -173.225 -5.89132 89.374 -11.3271 8.33247 0.505642 70.3575 6.21984 -2.44399 16.7915 -9.57827 7.5699 170.356 -6.03784 86.4041 -10.8599 -4.75332 -0.440792 66.2051 -3.82618 0.826339 26.5846 0.427153 2.67851 0.160891 7.93723 -89.9433 10.9993 0.346609 0.0797726 -0.671602 0.349781 0.0644278 -23.207 0.306611 0.180247 -3.19439 0.306605 0.180245 88.3582 -30.6968 -109.701 37.9953 -8.40401 -6.97757 6.91472 -29.789 -13.462 -22.7647 -0.494833 -7.98439 -89.9956 -50.1443 78.7659 -22.6683 15.6827 -15.8508 -6.52586 11.3427 -0.00962747 4.36296 -0.289907 -14.7671 4.56106 -1.86095 -3.51825 -2.0354 -1.1727 2.12903 
39.7754 101.717 27.7231 -174.667 -82.1412 -176.066 -173.183 -5.86445 89.3961 -11.2867 8.338 0.447096 70.3003 6.17222 -2.57511 16.8239 -9.57921 7.61065 170.364 -5.92268 86.3882 -10.9747 -4.81686 -0.456887 66.2286 -3.86326 0.609501 26.4476 0.369484 3.20596 0.181275 7.92716 -89.9777 11.0195 0.371245 0.00885607 -0.651382 0.371277 -0.00749811 -23.1869 0.351422 0.120029 -3.17428 0.351417 0.120017 88.5761 -30.398 -109.402 38.0901 -8.43985 -6.88924 6.81177 -31.1517 -13.5794 -22.1429 -0.512915 -8.2443 -90.278 -50.6475 78.4538 -22.3702 15.6967 -15.9069 -6.52712 11.1895 -0.00962234 4.87679 -0.333295 -14.5102 4.35358 -1.88807 -2.97739 -1.96621 -1.30568 1.78716 
39.7746 101.715 27.7384 -175.004 -82.1106 -176.382 -173.183 -5.84957 89.392 -11.4167 8.37521 0.46125 70.4257 6.28391 -2.3367 16.4855 -9.7239 7.49054 170.33 -5.99649 86.3926 -10.9584 -4.83912 -0.42251 66.1943 -3.84831 0.666196 26.5858 0.346328 3.04005 0.175508 7.93141 -89.9756 11.0111 0.360738 0.0140609 -0.65983 0.361002 -0.00183719 -23.1954 0.33984 0.121826 -3.18271 0.339828 0.121818 88.5428 -30.4173 -109.458 38.1616 -8.37834 -6.93148 6.80786 -31.2655 -13.4851 -22.2787 -0.514613 -8.24964 -90.1559 -50.5509 78.6144 -22.36 15.7689 -15.9788 -6.62966 11.4939 -0.0096326 4.85681 -0.323216 -14.5029 4.4784 -1.84905 -3.03759 -2.10493 -1.25454 1.849 
39.7566 101.712 27.7521 -175.23 -82.039 -176.571 -173.16 -5.883 89.4692 -11.4944 8.50101 0.491093 70.401 6.23155 -2.46469 16.7662 -9.5607 7.50482 170.335 -6.12884 86.4529 -10.8795 -4.96859 -0.401302 66.1483 -3.87261 0.482321 26.6121 0.437204 2.5784 0.185961 7.93079 -89.984 11.0036 0.377682 -0.00416959 -0.667263 0.377133 -0.0207874 -23.2028 0.361469 0.109534 -3.19019 0.361477 0.109539 88.568 -30.4483 -109.397 38.0773 -8.4012 -6.86347 6.79895 -31.7966 -13.5374 -22.0763 -0.516119 -8.38919 -90.3022 -50.61 78.4097 -22.2477 15.8209 -15.9943 -6.64229 10.9568 -0.0096147 4.18892 -0.283193 -14.7486 4.41133 -1.96413 -2.98419 -1.98881 -1.37928 1.69587 
39.7775 101.707 27.7722 -175.104 -82.0633 -176.487 -173.198 -5.94223 89.3771 -11.3571 8.53976 0.483983 70.3865 6.31531 -2.16911 16.5019 -9.70248 7.46813 170.34 -6.03766 86.3856 -11.0051 -4.82061 -0.451303 66.2052 -3.84838 0.653776 26.5264 0.396288 2.93032 0.189957 7.92927 -89.9726 11.016 0.390888 0.0171125 -0.654911 0.391264 -0.00011922 -23.1905 0.36767 0.133798 -3.17785 0.367675 0.133797 88.543 -30.5581 -109.399 38.0211 -8.43545 -6.92417 6.87924 -32.0288 -13.4316 -22.4628 -0.527082 -8.34056 -90.3061 -50.4898 78.378 -22.3266 15.7499 -16.002 -6.5569 11.372 -0.00962845 3.90258 -0.234483 -14.7461 4.50597 -1.97367 -3.18686 -2.09677 -1.35009 1.81554 
39.7614 101.721 27.8113 -175.572 -81.9194 -176.865 -173.122 -6.08019 89.5227 -11.4283 8.55476 0.51187 70.4144 6.25791 -2.39353 16.6568 -9.65717 7.56392 170.318 -6.33254 86.461 -10.8403 -5.00901 -0.410558 66.0317 -3.76372 0.606817 26.8204 0.341276 2.59566 0.17912 7.94195 -89.9805 10.99 0.365682 0.00390642 -0.680872 0.365496 -0.0121985 -23.2164 0.347597 0.113631 -3.20377 0.347599 0.113626 88.4337 -30.5607 -109.611 38.0551 -8.30863 -6.85258 6.75291 -32.4204 -13.4913 -22.1964 -0.541083 -8.36879 -90.1874 -50.5311 78.5632 -22.1677 15.9229 -15.9361 -6.71463 10.9555 -0.00961465 4.02575 -0.262267 -14.6489 4.54634 -1.91576 -3.22496 -1.94569 -1.28135 1.89317 
39.7678 101.71 27.8434 -176.082 -81.8552 -177.378 -173.071 -6.0951 89.5495 -11.5608 8.63827 0.478747 70.58 6.36101 -2.30808 16.4046 -9.66736 7.28351 170.358 -6.48168 86.4421 -10.6421 -4.47266 -0.462651 66.2903 -4.03163 0.381037 26.2446 0.32022 3.82052 0.184483 7.95443 -89.9856 10.965 0.373982 -0.00685272 -0.705857 0.373321 -0.0233156 -23.2414 0.358747 0.105867 -3.22878 0.358755 0.105861 88.5717 -30.6412 -109.309 37.9826 -8.37698 -6.99051 6.87193 -31.4957 -13.4094 -22.0796 -0.462365 -8.65859 -90.3126 -50.4107 78.3509 -22.399 15.7424 -16.0141 -6.62715 11.0646 -0.00961822 4.43185 -0.289764 -14.4934 4.72328 -2.01175 -3.32076 -2.11031 -1.3538 2.07195 
